<svg width="14" height="14" viewBox="0 0 14 14" fill="none" xmlns="http://www.w3.org/2000/svg">
<path d="M6.3335 3.66665H7.66683C8.02045 3.66665 8.35959 3.80712 8.60964 4.05717C8.85969 4.30722 9.00016 4.64636 9.00016 4.99998V5.66665H7.66683V4.99998H6.3335V8.99998H7.66683V8.33331H9.00016V8.99998C9.00016 9.3536 8.85969 9.69274 8.60964 9.94279C8.35959 10.1928 8.02045 10.3333 7.66683 10.3333H6.3335C5.97987 10.3333 5.64074 10.1928 5.39069 9.94279C5.14064 9.69274 5.00016 9.3536 5.00016 8.99998V4.99998C5.00016 4.64636 5.14064 4.30722 5.39069 4.05717C5.64074 3.80712 5.97987 3.66665 6.3335 3.66665ZM7.00016 0.333313C7.87564 0.333313 8.74255 0.505751 9.55139 0.840783C10.3602 1.17581 11.0952 1.66688 11.7142 2.28593C12.3333 2.90499 12.8243 3.63992 13.1594 4.44876C13.4944 5.25759 13.6668 6.1245 13.6668 6.99998C13.6668 8.76809 12.9645 10.4638 11.7142 11.714C10.464 12.9643 8.76827 13.6666 7.00016 13.6666C6.12468 13.6666 5.25778 13.4942 4.44894 13.1592C3.6401 12.8241 2.90517 12.3331 2.28612 11.714C1.03588 10.4638 0.333496 8.76809 0.333496 6.99998C0.333496 5.23187 1.03588 3.53618 2.28612 2.28593C3.53636 1.03569 5.23205 0.333313 7.00016 0.333313ZM7.00016 1.66665C5.58567 1.66665 4.22912 2.22855 3.22893 3.22874C2.22873 4.22894 1.66683 5.58549 1.66683 6.99998C1.66683 8.41447 2.22873 9.77102 3.22893 10.7712C4.22912 11.7714 5.58567 12.3333 7.00016 12.3333C8.41465 12.3333 9.77121 11.7714 10.7714 10.7712C11.7716 9.77102 12.3335 8.41447 12.3335 6.99998C12.3335 5.58549 11.7716 4.22894 10.7714 3.22874C9.77121 2.22855 8.41465 1.66665 7.00016 1.66665Z" fill="#BEBEBE"/>
</svg>
