<svg width="12" height="12" viewBox="0 0 12 12" fill="none" xmlns="http://www.w3.org/2000/svg">
<path d="M5.99982 4.17775C4.9963 4.17775 4.17736 4.99669 4.17736 6.00021C4.17736 7.00373 4.9963 7.82267 5.99982 7.82267C7.00334 7.82267 7.82228 7.00373 7.82228 6.00021C7.82228 4.99669 7.00334 4.17775 5.99982 4.17775ZM11.4658 6.00021C11.4658 5.24552 11.4727 4.49767 11.4303 3.74435C11.3879 2.86935 11.1883 2.09279 10.5485 1.45295C9.90724 0.811735 9.13205 0.613493 8.25705 0.57111C7.50236 0.528727 6.75451 0.535563 6.00119 0.535563C5.2465 0.535563 4.49865 0.528727 3.74533 0.57111C2.87033 0.613493 2.09377 0.813102 1.45392 1.45295C0.812711 2.09416 0.614469 2.86935 0.572086 3.74435C0.529704 4.49904 0.536539 5.24689 0.536539 6.00021C0.536539 6.75353 0.529704 7.50275 0.572086 8.25607C0.614469 9.13107 0.814079 9.90763 1.45392 10.5475C2.09513 11.1887 2.87033 11.3869 3.74533 11.4293C4.50002 11.4717 5.24787 11.4649 6.00119 11.4649C6.75587 11.4649 7.50373 11.4717 8.25705 11.4293C9.13205 11.3869 9.90861 11.1873 10.5485 10.5475C11.1897 9.90626 11.3879 9.13107 11.4303 8.25607C11.474 7.50275 11.4658 6.7549 11.4658 6.00021ZM5.99982 8.80431C4.44806 8.80431 3.19572 7.55197 3.19572 6.00021C3.19572 4.44845 4.44806 3.19611 5.99982 3.19611C7.55158 3.19611 8.80392 4.44845 8.80392 6.00021C8.80392 7.55197 7.55158 8.80431 5.99982 8.80431ZM8.91877 3.73615C8.55646 3.73615 8.26388 3.44357 8.26388 3.08127C8.26388 2.71896 8.55646 2.42638 8.91877 2.42638C9.28107 2.42638 9.57365 2.71896 9.57365 3.08127C9.57376 3.1673 9.55689 3.2525 9.52402 3.33201C9.49115 3.41151 9.44291 3.48375 9.38208 3.54458C9.32125 3.60541 9.24901 3.65365 9.16951 3.68652C9.09 3.71939 9.0048 3.73626 8.91877 3.73615Z" fill="#002060"/>
</svg>
