<svg width="16" height="18" viewBox="0 0 16 18" fill="none" xmlns="http://www.w3.org/2000/svg">
<path d="M13.8333 0.666672H2.16667C1.72464 0.666672 1.30072 0.842266 0.988155 1.15483C0.675595 1.46739 0.5 1.89131 0.5 2.33334V13.1667C0.5 13.6087 0.675595 14.0326 0.988155 14.3452C1.30072 14.6577 1.72464 14.8333 2.16667 14.8333H5.5L8 17.3333L10.5 14.8333H13.8333C14.2754 14.8333 14.6993 14.6577 15.0118 14.3452C15.3244 14.0326 15.5 13.6087 15.5 13.1667V2.33334C15.5 1.89131 15.3244 1.46739 15.0118 1.15483C14.6993 0.842266 14.2754 0.666672 13.8333 0.666672ZM8 3.16667C9.43917 3.16667 10.5 4.22667 10.5 5.66667C10.5 7.10667 9.43917 8.16667 8 8.16667C6.56167 8.16667 5.5 7.10667 5.5 5.66667C5.5 4.22667 6.56167 3.16667 8 3.16667ZM3.98083 12.3333C4.44583 10.8975 6.06083 9.83334 8 9.83334C9.93917 9.83334 11.555 10.8975 12.0192 12.3333H3.98083Z" fill="#002060"/>
</svg>
