<svg width="10" height="12" viewBox="0 0 10 12" fill="none" xmlns="http://www.w3.org/2000/svg">
<path d="M5 0.125061C7.6925 0.125061 9.875 2.30756 9.875 5.00006C9.875 7.06006 8.4275 9.30506 5.57 11.7591C5.41111 11.8956 5.20853 11.9705 4.99906 11.9703C4.7896 11.9702 4.58715 11.8948 4.4285 11.7581L4.2395 11.5941C1.5085 9.20406 0.125 7.01406 0.125 5.00006C0.125 2.30756 2.3075 0.125061 5 0.125061ZM5 3.12506C4.50272 3.12506 4.02581 3.3226 3.67417 3.67424C3.32254 4.02587 3.125 4.50278 3.125 5.00006C3.125 5.49734 3.32254 5.97426 3.67417 6.32589C4.02581 6.67752 4.50272 6.87506 5 6.87506C5.49728 6.87506 5.9742 6.67752 6.32583 6.32589C6.67746 5.97426 6.875 5.49734 6.875 5.00006C6.875 4.50278 6.67746 4.02587 6.32583 3.67424C5.9742 3.3226 5.49728 3.12506 5 3.12506Z" fill="#002060"/>
</svg>
