<svg width="18" height="17" viewBox="0 0 18 17" fill="none" xmlns="http://www.w3.org/2000/svg">
<path d="M16.7364 5.89631L11.7774 5.17561L9.56061 0.681465C9.50007 0.558418 9.40046 0.458808 9.27741 0.398262C8.96882 0.245918 8.59382 0.372871 8.43952 0.681465L6.22272 5.17561L1.26374 5.89631C1.12702 5.91584 1.00202 5.98029 0.906317 6.07795C0.790617 6.19687 0.726862 6.35686 0.729059 6.52276C0.731256 6.68866 0.799227 6.8469 0.918036 6.96272L4.50593 10.4608L3.65827 15.4002C3.63839 15.5151 3.65111 15.6333 3.69497 15.7413C3.73884 15.8494 3.8121 15.943 3.90645 16.0115C4.0008 16.08 4.11246 16.1207 4.22878 16.129C4.34509 16.1373 4.4614 16.1129 4.56452 16.0584L9.00007 13.7264L13.4356 16.0584C13.5567 16.1229 13.6973 16.1444 13.8321 16.1209C14.1719 16.0623 14.4005 15.7401 14.3419 15.4002L13.4942 10.4608L17.0821 6.96272C17.1798 6.86701 17.2442 6.74201 17.2637 6.60529C17.3165 6.2635 17.0782 5.94709 16.7364 5.89631Z" fill="#FFEA00"/>
</svg>
